<svg version="1.1" id="Layer_1" xmlns="http://www.w3.org/2000/svg" xmlns:xlink="http://www.w3.org/1999/xlink" x="0px" y="0px"
	 width="100%" viewBox="0 0 800 800" enable-background="new 0 0 800 800" xml:space="preserve">
<path fill="none" opacity="1.000000" stroke="none" 
	d="
M524.000000,801.000000 
	C349.333344,801.000000 175.166672,801.000000 1.000000,801.000000 
	C1.000000,534.333313 1.000000,267.666656 1.000000,1.000000 
	C267.666656,1.000000 534.333313,1.000000 801.000000,1.000000 
	C801.000000,267.666656 801.000000,534.333313 801.000000,801.000000 
	C708.833313,801.000000 616.666687,801.000000 524.000000,801.000000 
M326.410492,293.101501 
	C326.410492,293.101501 326.700928,293.100494 326.820801,294.016693 
	C326.835724,402.017365 326.847992,510.018005 326.870392,618.018677 
	C326.872253,626.907532 330.638275,630.728088 339.467041,630.768372 
	C349.466797,630.814026 359.468414,630.677185 369.466339,630.820007 
	C375.058533,630.899841 379.362915,628.904236 382.875092,624.509827 
	C428.929779,566.886841 475.037598,509.306274 521.150208,451.729614 
	C522.553589,449.977356 524.153442,448.382507 526.022339,446.315247 
	C527.616882,448.188995 528.811584,449.520660 529.927856,450.915100 
	C579.370972,512.678162 628.801147,574.451599 678.254089,636.206726 
	C682.861511,641.960266 688.474121,642.730042 694.249390,638.234436 
	C702.661804,631.686096 710.992310,625.027344 719.218872,618.247070 
	C726.535828,612.216492 726.982422,607.281433 721.076904,599.907227 
	C676.194702,543.862732 631.288635,487.837250 586.398376,431.799194 
	C578.199280,421.563995 570.038452,411.298126 561.804871,400.977325 
	C582.279419,375.385040 602.451111,350.146057 622.650146,324.928955 
	C655.456665,283.972321 688.290222,243.037262 721.089783,202.074997 
	C726.988281,194.708572 726.514648,189.801376 719.205017,183.735565 
	C712.796265,178.417282 706.012817,173.536743 699.759949,168.047119 
	C686.647095,156.535019 682.089722,160.786697 673.994751,170.956711 
	C625.751831,231.566040 577.263733,291.980255 528.886169,352.482574 
	C528.068054,353.505768 527.602783,354.811066 526.662659,356.562531 
	C524.394104,354.048553 523.249329,352.902740 522.242554,351.646301 
	C493.501770,315.779175 464.770966,279.904053 436.047089,244.023361 
	C418.243927,221.784393 400.444763,199.542175 382.669861,177.280609 
	C380.045013,173.993195 377.026794,171.831863 372.532654,171.921295 
	C361.705231,172.136703 350.870544,172.321487 340.044647,172.150314 
	C333.628021,172.048828 329.225708,174.840652 326.124298,180.121719 
	C319.727173,191.014725 313.337524,201.912704 307.035156,212.860657 
	C282.527771,255.432907 258.118774,298.061890 233.553909,340.600922 
	C205.824890,388.619354 177.908203,436.529419 150.184235,484.550751 
	C126.957031,524.783264 104.100388,565.231873 80.559486,605.279053 
	C76.265770,612.583435 78.441635,619.905396 85.397377,623.436218 
	C94.738403,628.177795 103.634071,633.800354 112.693329,639.091980 
	C118.541870,642.508179 124.406197,641.186523 128.068100,635.384521 
	C130.103577,632.159546 131.919403,628.795471 133.821457,625.486694 
	C156.642273,585.788757 179.396194,546.052185 202.295105,506.399292 
	C235.347351,449.164398 268.487396,391.980164 301.628723,334.796783 
	C309.715637,320.843292 317.953339,306.977142 326.410492,293.101501 
z"/>
<path fill="rgb(92, 201, 159)" opacity="1.000000" stroke="none" 
	d="
M326.121704,293.070862 
	C317.953339,306.977142 309.715637,320.843292 301.628723,334.796783 
	C268.487396,391.980164 235.347351,449.164398 202.295105,506.399292 
	C179.396194,546.052185 156.642273,585.788757 133.821457,625.486694 
	C131.919403,628.795471 130.103577,632.159546 128.068100,635.384521 
	C124.406197,641.186523 118.541870,642.508179 112.693329,639.091980 
	C103.634071,633.800354 94.738403,628.177795 85.397377,623.436218 
	C78.441635,619.905396 76.265770,612.583435 80.559486,605.279053 
	C104.100388,565.231873 126.957031,524.783264 150.184235,484.550751 
	C177.908203,436.529419 205.824890,388.619354 233.553909,340.600922 
	C258.118774,298.061890 282.527771,255.432907 307.035156,212.860657 
	C313.337524,201.912704 319.727173,191.014725 326.124298,180.121719 
	C329.225708,174.840652 333.628021,172.048828 340.044647,172.150314 
	C350.870544,172.321487 361.705231,172.136703 372.532654,171.921295 
	C377.026794,171.831863 380.045013,173.993195 382.669861,177.280609 
	C400.444763,199.542175 418.243927,221.784393 436.047089,244.023361 
	C464.770966,279.904053 493.501770,315.779175 522.242554,351.646301 
	C523.249329,352.902740 524.394104,354.048553 526.662659,356.562531 
	C527.602783,354.811066 528.068054,353.505768 528.886169,352.482574 
	C577.263733,291.980255 625.751831,231.566040 673.994751,170.956711 
	C682.089722,160.786697 686.647095,156.535019 699.759949,168.047119 
	C706.012817,173.536743 712.796265,178.417282 719.205017,183.735565 
	C726.514648,189.801376 726.988281,194.708572 721.089783,202.074997 
	C688.290222,243.037262 655.456665,283.972321 622.650146,324.928955 
	C602.451111,350.146057 582.279419,375.385040 561.804871,400.977325 
	C570.038452,411.298126 578.199280,421.563995 586.398376,431.799194 
	C631.288635,487.837250 676.194702,543.862732 721.076904,599.907227 
	C726.982422,607.281433 726.535828,612.216492 719.218872,618.247070 
	C710.992310,625.027344 702.661804,631.686096 694.249390,638.234436 
	C688.474121,642.730042 682.861511,641.960266 678.254089,636.206726 
	C628.801147,574.451599 579.370972,512.678162 529.927856,450.915100 
	C528.811584,449.520660 527.616882,448.188995 526.022339,446.315247 
	C524.153442,448.382507 522.553589,449.977356 521.150208,451.729614 
	C475.037598,509.306274 428.929779,566.886841 382.875092,624.509827 
	C379.362915,628.904236 375.058533,630.899841 369.466339,630.820007 
	C359.468414,630.677185 349.466797,630.814026 339.467041,630.768372 
	C330.638275,630.728088 326.872253,626.907532 326.870392,618.018677 
	C326.847992,510.018005 326.835724,402.017365 326.794006,293.345337 
	C326.552002,292.806305 326.336853,292.938568 326.121704,293.070862 
M477.334167,416.833496 
	C480.337341,413.052124 483.134644,409.080261 486.404846,405.545959 
	C489.344177,402.369232 489.303772,400.038116 486.524475,396.589783 
	C455.927368,358.626770 425.498169,320.528442 395.019409,282.470001 
	C391.256683,277.771515 387.470459,273.091858 383.291931,267.902802 
	C383.291931,357.025299 383.291931,445.150208 383.291931,534.137878 
	C414.881683,494.739227 445.889343,456.066528 477.334167,416.833496 
z"/>
<path fill="#D9EEE3" opacity="1.000000" stroke="none" 
	d="
M326.266113,293.086182 
	C326.336853,292.938568 326.552002,292.806305 326.734070,292.887268 
	C326.700928,293.100494 326.410492,293.101501 326.266113,293.086182 
z"/>
<path fill="none" opacity="1.000000" stroke="none" 
	d="
M477.115601,417.113678 
	C445.889343,456.066528 414.881683,494.739227 383.291931,534.137878 
	C383.291931,445.150208 383.291931,357.025299 383.291931,267.902802 
	C387.470459,273.091858 391.256683,277.771515 395.019409,282.470001 
	C425.498169,320.528442 455.927368,358.626770 486.524475,396.589783 
	C489.303772,400.038116 489.344177,402.369232 486.404846,405.545959 
	C483.134644,409.080261 480.337341,413.052124 477.115601,417.113678 
z"/>
</svg>