<svg version="1.1" id="Layer_1" xmlns="http://www.w3.org/2000/svg" xmlns:xlink="http://www.w3.org/1999/xlink" x="0px" y="0px"
	 width="100%" viewBox="0 0 240 240" enable-background="new 0 0 240 240" xml:space="preserve">
<path fill="rgb(92, 201, 159)" opacity="1.000000" stroke="none" 
	d="
M128.000000,241.000000 
	C85.333336,241.000000 43.166672,241.000000 1.000006,241.000000 
	C1.000004,161.000000 1.000004,81.000015 1.000002,1.000016 
	C80.999992,1.000011 160.999985,1.000011 240.999969,1.000005 
	C240.999985,80.999985 240.999985,160.999969 241.000000,240.999969 
	C203.500000,241.000000 166.000000,241.000000 128.000000,241.000000 
M129.257568,104.670631 
	C129.250107,107.166786 129.292099,109.664223 129.227310,112.158890 
	C128.747131,130.646973 115.010681,142.192078 96.716248,139.522232 
	C95.599777,139.359299 94.401344,139.002945 93.447647,140.083496 
	C92.896072,141.655914 93.989120,142.562790 94.910202,143.492630 
	C102.570282,151.225601 111.703979,156.252716 122.653900,156.687927 
	C156.095932,158.017105 175.663620,128.341919 167.478928,95.348679 
	C165.352097,86.775291 154.813858,81.164963 146.557861,82.622421 
	C135.826920,84.516792 129.683548,92.021149 129.257568,104.670631 
M83.849388,106.468063 
	C80.941643,115.327713 83.087799,122.935455 90.109489,128.856506 
	C96.269806,134.051208 103.541641,134.451294 110.757370,131.491318 
	C118.619560,128.266159 123.699760,118.836441 122.495956,110.816917 
	C121.164566,101.947441 113.971542,94.492500 105.667519,93.375671 
	C95.966614,92.070969 88.442970,96.397224 83.849388,106.468063 
z"/>
</svg>